<svg xmlns="http://www.w3.org/2000/svg"  viewBox="0 0 64 64" width="64px" height="64px" baseProfile="basic"><ellipse cx="32" cy="33" fill="#ffce29" rx="29" ry="20"/><path fill="none" stroke="#fff" stroke-linecap="round" stroke-linejoin="round" stroke-miterlimit="10" stroke-width="3" d="M13.977,21.338c1.449-0.937,3.071-1.763,4.831-2.454"/><ellipse cx="32" cy="61" opacity=".3" rx="23" ry="3"/><path d="M60.113,28.089C57.776,28.509,56,30.543,56,33c0,8.271-10.767,15-24,15 c-2.664,0-4.82,2.089-4.971,4.714C28.641,52.899,30.3,53,32,53c16.262,0,29-8.785,29-20C61,31.306,60.69,29.661,60.113,28.089z" opacity=".15"/><path fill="#fff" d="M32,18c2.659,0,4.812-2.081,4.97-4.7C35.354,13.107,33.695,13,32,13 C15.738,13,3,21.785,3,33c0,1.702,0.297,3.346,0.852,4.914C6.206,37.508,8,35.469,8,33C8,24.729,18.767,18,32,18z" opacity=".3"/><path fill="#9c34c2" d="M42.947,19.717c-0.438-0.143-0.816,0.32-0.591,0.722c4.5,8.045-4.514,13.897-6.131,6.672	l-0.614-6.518c-0.041-0.438-0.588-0.613-0.876-0.28l-0.774,0.895c-0.095,0.11-0.233,0.173-0.378,0.173l-3.165,0	c-0.145,0-0.283-0.063-0.378-0.173l-0.774-0.895c-0.288-0.333-0.835-0.158-0.876,0.28l-0.614,6.518	c-1.616,7.224-10.629,1.308-6.132-6.741c0.225-0.402-0.153-0.863-0.592-0.72c-7.823,2.552-13.049,7.552-13.049,13.349	c0,5.716,4.992,9.502,8.122,11.247c0.408,0.227,0.87-0.194,0.695-0.626c-2.053-5.065,4.011-7.422,7.408-2.309	c0.211,0.317,0.693,0.303,0.856-0.04c1.451-3.059,5.108,0.606,6.439,4.155c0.164,0.438,0.77,0.436,0.931-0.004	c1.302-3.555,5.006-7.214,6.464-4.15c0.163,0.343,0.645,0.356,0.856,0.039c3.397-5.114,9.461-2.758,7.408,2.308	c-0.175,0.432,0.288,0.854,0.695,0.626c3.129-1.745,8.122-5.531,8.122-11.247C55.998,27.221,50.308,22.115,42.947,19.717z"/></svg>