<svg xmlns="http://www.w3.org/2000/svg"  viewBox="0 0 64 64" width="64px" height="64px" baseProfile="basic"><path fill="#fd3c4f" d="M57.149,19.346l-6.109-6.109C49.6,11.794,47.683,11,45.641,11H18.359	c-2.042,0-3.958,0.794-5.398,2.236l-6.11,6.11c-1.975,1.975-2.108,5.197-0.304,7.335l23.002,27.182C30.16,54.585,31.053,55,32,55	s1.84-0.415,2.45-1.137l23.003-27.186C59.258,24.542,59.125,21.322,57.149,19.346z"/><path d="M57.025,27.183L57.025,27.183c-2.107-1.784-5.263-1.521-7.046,0.587L35.476,44.91 c-1.784,2.108-1.521,5.262,0.587,7.046L57.025,27.183z" opacity=".15"/><path fill="#fff" d="M12.961,13.236l-6.11,6.11c-1.274,1.274-1.77,3.065-1.485,4.751 c0.484,0.151,0.982,0.249,1.485,0.249c1.28,0,2.559-0.488,3.536-1.464l6.112-6.112C17.001,16.266,17.645,16,18.359,16H23 c2.761,0,5-2.239,5-5h-9.641C16.317,11,14.4,11.794,12.961,13.236z" opacity=".3"/><path fill="#ffce29" d="M16.331,16.677c0.432-0.432,1.007-0.669,1.617-0.669h1.637c-2.74,1.726-4.761,4.22-5.814,6.85 c-0.585,1.461-0.79,2.694-0.69,3.745l-2.938-3.495L16.331,16.677z"/><path fill="#ffce29" d="M42.988,36.068l-0.582,0.687c-1.952,1.21-8.083,2.087-8.083,2.087 c-1.977-5.93-12.486-5.01-12.319-1.697l-5.295-6.257c5.243,2.315,15.048,1.959,22.181,3.386 C41.952,34.888,43.032,35.5,42.988,36.068z"/><path fill="#ffce29" d="M32.039,49.008l-7.547-8.919c4.551,2.863,11.036,1.48,14.192,1.064L32.039,49.008z"/><path fill="#ffce29" d="M48.135,29.987c-0.064-0.164-0.112-0.279-0.112-0.279c-2.283-4.567-15.984-4.567-20.551-5.053 c-1.523-0.162-6.85,0.486-4.567-4.08c1.021-2.041,3.658-3.137,4.567-3.242c8.556-0.991,11.981,2.605,13.162,4.471 c0.418,0.662,1.137,1.055,1.92,1.055h5.469c1.26,0,2.283-1.023,2.283-2.283v-1.338l3.752,3.752L48.135,29.987z"/><ellipse cx="32" cy="61" opacity=".3" rx="19" ry="3"/><line x1="10.096" x2="14.124" y1="21.051" y2="17.023" fill="none" stroke="#fff" stroke-linecap="round" stroke-linejoin="round" stroke-miterlimit="10" stroke-width="3"/></svg>